# xmcd
#
# Track frame offsets:
#	150
#	26547
#	50072
#	73507
#	90845
#	112140
#	128712
#	145007
#	168020
#	194250
#	211107
#	237957
#	256465
#
# Disc length: 4319 seconds
#
# Revision: 0
# Processed by: cddbd v1.4PL0 Copyright (c) Steve Scherf et al.
# Submitted via: dBpowerAMP V4.0
#
DISCID=ad10dd0d
DTITLE=Henry Butler - The Game Has Just Begun
DYEAR=2002
DGENRE=Blues
TTITLE0=The Game Has Just Begun
TTITLE1=This Is Where I Live
TTITLE2=Mac Daddy Henry
TTITLE3=Tie Me Down
TTITLE4=You Are My Sunshine
TTITLE5=Regeneration
TTITLE6=Great Balls of Fire
TTITLE7=High Heeled Sneakers
TTITLE8=Fall Blues
TTITLE9=When You Listen with Your Eyes
TTITLE10=Riders on the Storm
TTITLE11=Liberty Street Blues
TTITLE12=Q&A with Henry Butler
EXTD=
EXTT0=
EXTT1=
EXTT2=
EXTT3=
EXTT4=
EXTT5=
EXTT6=
EXTT7=
EXTT8=
EXTT9=
EXTT10=
EXTT11=
EXTT12=
PLAYORDER=
